<svg width="14" height="19" viewBox="0 0 14 19" fill="none" xmlns="http://www.w3.org/2000/svg">
<g clip-path="url(#clip0_199_393)">
<path d="M2.84375 9.71585H11.1562V11.2272H2.84375V9.71585Z" fill="white"/>
<path d="M2.84375 12.3068H8.96872V13.8181H2.84375V12.3068Z" fill="white"/>
<path d="M9.18734 4.74998L11.8265 5.24225L13.9998 4.74998L9.18734 0L8.52344 2.25192L9.18734 4.74998Z" fill="#1967D2"/>
<path d="M2.84375 7.12497H11.1562V8.63633H2.84375V7.12497Z" fill="white"/>
<path d="M9.18746 4.74998V0H1.31249C0.587341 0 0 0.579713 0 1.29545V17.7045C0 18.4202 0.587341 18.9999 1.31249 18.9999H12.6874C13.4126 18.9999 13.9999 18.4202 13.9999 17.7045V4.74998H9.18746ZM8.74996 13.6022H3.06249V12.5227H8.74996V13.6022ZM10.9374 11.0113H3.06249V9.93177H10.9374V11.0113ZM10.9374 8.42041H3.06249V7.34087H10.9374V8.42041Z" fill="#4285F4"/>
</g>
<defs>
<clipPath id="clip0_199_393">
<rect width="14" height="19" fill="white"/>
</clipPath>
</defs>
</svg>
