<svg width="42" height="42" viewBox="0 0 42 42" fill="none" xmlns="http://www.w3.org/2000/svg">
<g clip-path="url(#clip0_6_254)">
<path d="M14.6313 1.38138C10.4349 2.83717 6.81587 5.60031 4.30587 9.26492C1.79587 12.9295 0.527182 17.3025 0.686161 21.7414C0.845141 26.1804 2.42341 30.4514 5.18913 33.927C7.95486 37.4027 11.7623 39.8998 16.0521 41.0517C19.53 41.9491 23.1738 41.9885 26.6702 41.1665C29.8377 40.4551 32.7661 38.9332 35.1687 36.75C37.6693 34.4083 39.4843 31.4294 40.4187 28.1334C41.4339 24.5492 41.6147 20.7799 40.947 17.115H21.417V25.2164H32.7274C32.5014 26.5085 32.017 27.7417 31.3032 28.8423C30.5894 29.9428 29.661 30.888 28.5734 31.6214C27.1924 32.5353 25.6354 33.1501 24.0026 33.4261C22.3651 33.7306 20.6854 33.7306 19.0479 33.4261C17.3881 33.0833 15.818 32.3983 14.4377 31.4147C12.2201 29.8449 10.555 27.6147 9.67993 25.0425C8.79035 22.422 8.79035 19.5812 9.67993 16.9608C10.3028 15.124 11.3325 13.4516 12.6921 12.0684C14.2481 10.4565 16.2179 9.30428 18.3856 8.7382C20.5533 8.17211 22.835 8.21403 24.9804 8.85935C26.6565 9.3736 28.1891 10.2725 29.456 11.4844C30.7313 10.2156 32.0045 8.94357 33.2754 7.66826C33.9316 6.98248 34.647 6.32951 35.2934 5.62732C33.3592 3.82762 31.089 2.42713 28.6127 1.50607C24.1033 -0.131305 19.1692 -0.175308 14.6313 1.38138Z" fill="white"/>
<path d="M14.6312 1.38139C19.1688 -0.176358 24.1028 -0.133513 28.6126 1.5028C31.0893 2.43012 33.3585 3.83734 35.29 5.64374C34.6337 6.34592 33.9414 7.00217 33.272 7.68467C31.9989 8.95561 30.7269 10.2222 29.4559 11.4844C28.189 10.2725 26.6563 9.37361 24.9803 8.85936C22.8356 8.21178 20.5539 8.16744 18.3857 8.7312C16.2175 9.29497 14.2464 10.4451 12.6887 12.0553C11.3291 13.4385 10.2994 15.1109 9.67654 16.9476L2.87451 11.6812C5.30923 6.85308 9.52478 3.15991 14.6312 1.38139Z" fill="#E33629"/>
<path d="M1.06946 16.8985C1.4348 15.0865 2.04178 13.3317 2.87415 11.6813L9.67618 16.9608C8.7866 19.5813 8.7866 22.4221 9.67618 25.0425C7.40993 26.7925 5.14259 28.5513 2.87415 30.3188C0.791051 26.1723 0.155742 21.4479 1.06946 16.8985Z" fill="#F8BD00"/>
<path d="M21.4165 17.1117H40.9465C41.6142 20.7767 41.4335 24.5459 40.4182 28.1301C39.4838 31.4261 37.6688 34.405 35.1682 36.7467C32.9731 35.0339 30.7681 33.3342 28.5729 31.6214C29.6612 30.8873 30.5901 29.941 31.3039 28.8393C32.0177 27.7376 32.5017 26.5031 32.727 25.2098H21.4165C21.4132 22.5126 21.4165 19.8122 21.4165 17.1117Z" fill="#587DBD"/>
<path d="M2.87109 30.3187C5.13953 28.5687 7.40688 26.81 9.67313 25.0425C10.5499 27.6156 12.2174 29.8459 14.4375 31.4147C15.822 32.3937 17.3955 33.0732 19.0575 33.4097C20.695 33.7142 22.3747 33.7142 24.0122 33.4097C25.645 33.1337 27.202 32.5189 28.583 31.605C30.7781 33.3178 32.9831 35.0175 35.1783 36.7303C32.7761 38.9147 29.8476 40.4377 26.6798 41.1501C23.1834 41.9721 19.5396 41.9327 16.0617 41.0353C13.3111 40.3009 10.7417 39.0062 8.51484 37.2323C6.15801 35.3608 4.23293 33.0025 2.87109 30.3187Z" fill="#319F43"/>
</g>
<defs>
<clipPath id="clip0_6_254">
<rect width="42" height="42" fill="white"/>
</clipPath>
</defs>
</svg>
