<svg width="26" height="20" viewBox="0 0 26 20" fill="none" xmlns="http://www.w3.org/2000/svg">
<g clip-path="url(#clip0_13_1858)">
<path d="M4.67792 19.9007V18.577C4.67792 18.0695 4.36898 17.7386 3.83943 17.7386C3.57471 17.7386 3.28787 17.8268 3.08928 18.1137C2.93491 17.871 2.71431 17.7386 2.38335 17.7386C2.16265 17.7386 1.94215 17.8047 1.76556 18.0475V17.7827H1.30225V19.9007H1.76556V18.7314C1.76556 18.3564 1.96416 18.1798 2.2731 18.1798C2.58184 18.1798 2.73642 18.3784 2.73642 18.7314V19.9007H3.19973V18.7314C3.19973 18.3564 3.42024 18.1798 3.70707 18.1798C4.01602 18.1798 4.17039 18.3784 4.17039 18.7314V19.9007H4.67792ZM11.5393 17.7827H10.7893V17.1429H10.326V17.7827H9.90677V18.2018H10.3259V19.1727C10.3259 19.6581 10.5245 19.9448 11.054 19.9448C11.2526 19.9448 11.4731 19.8787 11.6277 19.7905L11.4952 19.3933C11.3628 19.4815 11.2085 19.5036 11.0981 19.5036C10.8775 19.5036 10.7893 19.3713 10.7893 19.1506V18.2018H11.5393V17.7827ZM15.4666 17.7385C15.2018 17.7385 15.0254 17.871 14.915 18.0475V17.7827H14.4517V19.9007H14.915V18.7094C14.915 18.3564 15.0694 18.1578 15.3562 18.1578C15.4445 18.1578 15.5548 18.1799 15.6431 18.2019L15.7754 17.7607C15.6872 17.7386 15.5548 17.7386 15.4666 17.7386V17.7385ZM9.53169 17.9592C9.31099 17.8047 9.00215 17.7386 8.67119 17.7386C8.14174 17.7386 7.78878 18.0033 7.78878 18.4225C7.78878 18.7756 8.0535 18.9741 8.51682 19.0403L8.73742 19.0624C8.98013 19.1064 9.1125 19.1727 9.1125 19.283C9.1125 19.4374 8.93602 19.5478 8.62707 19.5478C8.31823 19.5478 8.07551 19.4374 7.92104 19.3272L7.70044 19.6801C7.94315 19.8566 8.27411 19.9448 8.60496 19.9448C9.22275 19.9448 9.57581 19.6581 9.57581 19.2609C9.57581 18.8858 9.28898 18.6873 8.84767 18.6211L8.62707 18.599C8.42848 18.5769 8.27411 18.5329 8.27411 18.4005C8.27411 18.246 8.42848 18.1578 8.67119 18.1578C8.93602 18.1578 9.20074 18.2681 9.3331 18.3343L9.53169 17.9592ZM21.8427 17.7386C21.5779 17.7386 21.4014 17.871 21.2911 18.0475V17.7827H20.8278V19.9007H21.2911V18.7094C21.2911 18.3564 21.4456 18.1578 21.7323 18.1578C21.8206 18.1578 21.931 18.1799 22.0192 18.2019L22.1516 17.7607C22.0634 17.7386 21.931 17.7386 21.8427 17.7386ZM15.9299 18.8417C15.9299 19.4815 16.3711 19.9448 17.0551 19.9448C17.364 19.9448 17.5846 19.8787 17.8052 19.7022L17.5846 19.3272C17.4081 19.4595 17.2316 19.5256 17.033 19.5256C16.6579 19.5256 16.3932 19.2609 16.3932 18.8417C16.3932 18.4446 16.6579 18.1798 17.033 18.1578C17.2316 18.1578 17.4081 18.2239 17.5846 18.3564L17.8052 17.9813C17.5846 17.8047 17.364 17.7386 17.0551 17.7386C16.3711 17.7386 15.9299 18.2019 15.9299 18.8417ZM20.2101 18.8417V17.7827H19.7468V18.0475C19.5923 17.849 19.3717 17.7386 19.0849 17.7386C18.4892 17.7386 18.0259 18.2019 18.0259 18.8417C18.0259 19.4815 18.4892 19.9448 19.0849 19.9448C19.3937 19.9448 19.6144 19.8346 19.7468 19.636V19.9007H20.2101V18.8417ZM18.5112 18.8417C18.5112 18.4666 18.7539 18.1578 19.151 18.1578C19.5261 18.1578 19.7909 18.4446 19.7909 18.8417C19.7909 19.2168 19.5261 19.5256 19.151 19.5256C18.7539 19.5035 18.5112 19.2168 18.5112 18.8417ZM12.9735 17.7386C12.3557 17.7386 11.9144 18.1798 11.9144 18.8417C11.9144 19.5036 12.3556 19.9448 12.9955 19.9448C13.3044 19.9448 13.6133 19.8566 13.856 19.6581L13.6353 19.3272C13.4588 19.4595 13.2382 19.5478 13.0176 19.5478C12.7308 19.5478 12.444 19.4154 12.3777 19.0402H13.9443V18.8638C13.9664 18.1798 13.5693 17.7386 12.9735 17.7386ZM12.9735 18.1357C13.2602 18.1357 13.4589 18.3123 13.5029 18.6432H12.3998C12.444 18.3564 12.6425 18.1357 12.9735 18.1357ZM24.4682 18.8417V16.9443H24.0049V18.0475C23.8504 17.849 23.6298 17.7386 23.343 17.7386C22.7473 17.7386 22.284 18.2019 22.284 18.8417C22.284 19.4815 22.7473 19.9448 23.343 19.9448C23.6519 19.9448 23.8725 19.8346 24.0049 19.636V19.9007H24.4682V18.8417ZM22.7694 18.8417C22.7694 18.4666 23.012 18.1578 23.4092 18.1578C23.7843 18.1578 24.049 18.4446 24.049 18.8417C24.049 19.2168 23.7843 19.5256 23.4092 19.5256C23.012 19.5035 22.7694 19.2168 22.7694 18.8417ZM7.28124 18.8417V17.7827H6.81792V18.0475C6.66345 17.849 6.44285 17.7386 6.15602 17.7386C5.56034 17.7386 5.09702 18.2019 5.09702 18.8417C5.09702 19.4815 5.56034 19.9448 6.15602 19.9448C6.46496 19.9448 6.68556 19.8346 6.81792 19.636V19.9007H7.28124V18.8417ZM5.56034 18.8417C5.56034 18.4666 5.80305 18.1578 6.20014 18.1578C6.57521 18.1578 6.84004 18.4446 6.84004 18.8417C6.84004 19.2168 6.57521 19.5256 6.20014 19.5256C5.80305 19.5035 5.56034 19.2168 5.56034 18.8417Z" fill="black"/>
<path d="M9.37744 1.69873H16.3272V14.1863H9.37744V1.69873Z" fill="#FF5F00"/>
<path d="M9.81848 7.94261C9.81848 5.40543 11.0098 3.15497 12.841 1.69879C11.4953 0.639799 9.79647 0 7.9432 0C3.55255 0 0.000488281 3.55206 0.000488281 7.94261C0.000488281 12.3331 3.55255 15.8852 7.9431 15.8852C9.79637 15.8852 11.4952 15.2454 12.841 14.1863C11.0098 12.7523 9.81848 10.4798 9.81848 7.94261Z" fill="#EB001B"/>
<path d="M25.7038 7.94261C25.7038 12.3331 22.1517 15.8852 17.7612 15.8852C15.9079 15.8852 14.2091 15.2454 12.8633 14.1863C14.7165 12.7303 15.8859 10.4798 15.8859 7.94261C15.8859 5.40543 14.6944 3.15497 12.8633 1.69879C14.209 0.639799 15.9079 0 17.7612 0C22.1517 0 25.7038 3.57417 25.7038 7.94261Z" fill="#F79E1B"/>
</g>
<defs>
<clipPath id="clip0_13_1858">
<rect width="25.73" height="20" fill="white"/>
</clipPath>
</defs>
</svg>
