<svg width="23" height="23" viewBox="0 0 23 23" fill="none" xmlns="http://www.w3.org/2000/svg">
<path d="M17.3219 1.48926L21.3211 5.65801V21.5108H6.38184V21.5625H21.3721V5.71048L17.3219 1.48926Z" fill="#909090"/>
<path d="M17.2721 1.4375H6.33057V21.5107H21.3208V5.65872L17.2721 1.4375Z" fill="#F4F4F4"/>
<path d="M6.22074 2.51562H1.62793V7.42253H16.0748V2.51562H6.22074Z" fill="#7A7B7C"/>
<path d="M16.1515 7.33915H1.72119V2.42865H16.1515V7.33915Z" fill="#DD2025"/>
<path d="M6.5063 3.25881H5.56689V6.70881H6.30577V5.54515L6.46893 5.5545C6.62746 5.55177 6.78451 5.52337 6.93396 5.4704C7.06499 5.42533 7.18553 5.35418 7.2883 5.26125C7.39288 5.17271 7.47533 5.06097 7.52908 4.93493C7.60117 4.72542 7.62692 4.50275 7.60455 4.28231C7.60006 4.12484 7.57245 3.96888 7.52261 3.81943C7.47724 3.71155 7.40991 3.6143 7.32489 3.53387C7.23988 3.45343 7.13906 3.39158 7.02883 3.35225C6.93353 3.31774 6.83507 3.29271 6.73486 3.2775C6.65898 3.26579 6.58236 3.25954 6.50558 3.25881M6.36974 4.90762H6.30577V3.84387H6.44449C6.50571 3.83946 6.56714 3.84885 6.62425 3.87137C6.68135 3.89389 6.73266 3.92895 6.77439 3.97396C6.86087 4.08969 6.90707 4.23056 6.90593 4.37503C6.90593 4.55184 6.90593 4.71212 6.74636 4.82496C6.63141 4.88819 6.50057 4.91737 6.36974 4.90762ZM9.00827 3.24946C8.92849 3.24946 8.85086 3.25521 8.79624 3.25737L8.62518 3.26168H8.06455V6.71168H8.72436C8.97652 6.71859 9.22757 6.67586 9.46324 6.5859C9.65293 6.51066 9.82089 6.38938 9.95199 6.233C10.0795 6.0752 10.171 5.89147 10.2201 5.69465C10.2765 5.47174 10.3041 5.2425 10.302 5.01256C10.316 4.74098 10.2949 4.46874 10.2395 4.20253C10.1869 4.00657 10.0883 3.82597 9.95199 3.67568C9.84503 3.55433 9.71411 3.45644 9.56746 3.38818C9.44152 3.3299 9.30904 3.28695 9.17286 3.26025C9.11871 3.2513 9.06387 3.24721 9.00899 3.24803M8.87818 6.07775H8.8063V3.8755H8.81565C8.96382 3.85845 9.11375 3.88518 9.24689 3.9524C9.3444 4.03026 9.42386 4.12835 9.47977 4.2399C9.54011 4.3573 9.5749 4.48615 9.58183 4.61796C9.5883 4.77609 9.58183 4.90546 9.58183 5.01256C9.58476 5.13592 9.57682 5.2593 9.55811 5.38128C9.53596 5.5065 9.49501 5.62766 9.43664 5.74065C9.37059 5.8457 9.28133 5.93422 9.17574 5.9994C9.08706 6.05676 8.98205 6.08351 8.87674 6.07559M12.528 3.26168H10.7814V6.71168H11.5203V5.34318H12.4547V4.70206H11.5203V3.90281H12.5266V3.26168" fill="#464648"/>
<path d="M15.655 14.5583C15.655 14.5583 17.9464 14.1428 17.9464 14.9256C17.9464 15.7083 16.5268 15.3899 15.655 14.5583ZM13.9609 14.6179C13.5968 14.6984 13.2421 14.8162 12.9022 14.9694L13.1897 14.3225C13.4772 13.6756 13.7755 12.7937 13.7755 12.7937C14.1185 13.3711 14.5177 13.9133 14.9672 14.4124C14.6282 14.4629 14.2923 14.532 13.9609 14.6194V14.6179ZM13.0538 9.94605C13.0538 9.26396 13.2745 9.0778 13.4463 9.0778C13.6181 9.0778 13.8114 9.16046 13.8179 9.75271C13.7619 10.3482 13.6372 10.9353 13.4463 11.5021C13.1847 11.0262 13.0494 10.4913 13.0531 9.94821L13.0538 9.94605ZM9.71237 17.5044C9.00943 17.084 11.1865 15.7895 11.5811 15.7478C11.579 15.7485 10.4484 17.9443 9.71237 17.5044ZM18.6155 15.0183C18.6083 14.9464 18.5437 14.1507 17.1277 14.1845C16.5375 14.175 15.9476 14.2166 15.3646 14.3089C14.7999 13.7399 14.3135 13.0982 13.9185 12.4006C14.1674 11.6814 14.318 10.9319 14.3663 10.1725C14.3454 9.30996 14.1392 8.81546 13.4779 8.82265C12.8167 8.82984 12.7203 9.40843 12.8073 10.2695C12.8925 10.8481 13.0532 11.4131 13.2853 11.9499C13.2853 11.9499 12.9798 12.9008 12.5759 13.8467C12.1719 14.7926 11.8959 15.2885 11.8959 15.2885C11.1935 15.5172 10.5323 15.8569 9.93734 16.2948C9.34509 16.8461 9.10431 17.2694 9.41624 17.6927C9.68506 18.0579 10.6259 18.1405 11.4668 17.0387C11.9137 16.4696 12.3219 15.8712 12.6887 15.2476C12.6887 15.2476 13.971 14.8961 14.3699 14.7998C14.7688 14.7035 15.2511 14.6273 15.2511 14.6273C15.2511 14.6273 16.4219 15.8053 17.5511 15.7636C18.6802 15.7219 18.6256 15.0887 18.6184 15.0197" fill="#DD2025"/>
<path d="M17.2168 1.49286V5.71408H21.2655L17.2168 1.49286Z" fill="#909090"/>
<path d="M17.2725 1.4375V5.65872H21.3212L17.2725 1.4375Z" fill="#F4F4F4"/>
<path d="M6.45064 3.20348H5.51123V6.65348H6.25298V5.49054L6.41686 5.49989C6.57539 5.49716 6.73244 5.46876 6.88189 5.41579C7.01291 5.37071 7.13344 5.29956 7.23623 5.20664C7.34002 5.11786 7.42172 5.00614 7.47486 4.88032C7.54694 4.67081 7.57269 4.44814 7.55032 4.2277C7.54584 4.07023 7.51823 3.91427 7.46839 3.76482C7.42301 3.65694 7.35568 3.55969 7.27067 3.47926C7.18566 3.39883 7.08483 3.33697 6.97461 3.29764C6.87887 3.2628 6.77992 3.23752 6.6792 3.22217C6.60332 3.21046 6.52669 3.20421 6.44992 3.20348M6.31407 4.85229H6.25011V3.78854H6.38954C6.45077 3.78413 6.5122 3.79353 6.5693 3.81604C6.6264 3.83856 6.67772 3.87362 6.71945 3.91864C6.80593 4.03437 6.85213 4.17523 6.85098 4.3197C6.85098 4.49651 6.85098 4.65679 6.69142 4.76964C6.57647 4.83286 6.44562 4.86133 6.31479 4.85157M8.95261 3.19414C8.87282 3.19414 8.7952 3.19989 8.74057 3.20204L8.57167 3.20635H8.01104V6.65635H8.67086C8.92301 6.66327 9.17407 6.62053 9.40973 6.53057C9.59942 6.45534 9.76739 6.33405 9.89848 6.17767C10.026 6.01987 10.1175 5.83614 10.1666 5.63932C10.223 5.41642 10.2506 5.18717 10.2485 4.95723C10.2625 4.68566 10.2414 4.41342 10.186 4.1472C10.1334 3.95124 10.0348 3.77064 9.89848 3.62035C9.79153 3.499 9.6606 3.40111 9.51395 3.33285C9.38801 3.27458 9.25553 3.23162 9.11936 3.20492C9.0652 3.19597 9.01036 3.19188 8.95548 3.1927M8.82467 6.02242H8.75279V3.82017H8.76214C8.91031 3.80312 9.06024 3.82985 9.19339 3.89707C9.29089 3.97493 9.37035 4.07302 9.42626 4.18457C9.4866 4.30197 9.52139 4.43082 9.52832 4.56264C9.53479 4.72076 9.52832 4.85014 9.52832 4.95723C9.53125 5.08059 9.52331 5.20398 9.50461 5.32595C9.48245 5.45118 9.4415 5.57234 9.38314 5.68532C9.31708 5.79037 9.22782 5.87889 9.12223 5.94407C9.03355 6.00143 8.92854 6.02819 8.82323 6.02026M12.4723 3.20635H10.7258V6.65635H11.4646V5.28785H12.399V4.64673H11.4646V3.84748H12.4709V3.20635" fill="white"/>
</svg>
