<svg width="18" height="17" viewBox="0 0 18 17" fill="none" xmlns="http://www.w3.org/2000/svg">
<path d="M17.2327 0H4.95334C4.52957 0 4.18604 0.348176 4.18604 0.777675V4.24262L11.3023 6.36393L18 4.24262V0.777675C18 0.348176 17.6565 0 17.2327 0Z" fill="#41A5EE"/>
<path d="M18 4.24268H4.18604V8.48529L11.3023 9.75808L18 8.48529V4.24268Z" fill="#2B7CD3"/>
<path d="M4.18604 8.48529V12.7279L10.8837 13.5764L18 12.7279V8.48529H4.18604Z" fill="#185ABD"/>
<path d="M4.95334 16.9705H17.2327C17.6565 16.9705 18 16.6223 18 16.1928V12.7278H4.18604V16.1928C4.18604 16.6223 4.52957 16.9705 4.95334 16.9705Z" fill="#103F91"/>
<path opacity="0.1" d="M9.2792 3.39417H4.18604V14.0007H9.2792C9.7024 13.9993 10.0451 13.652 10.0465 13.223V4.17184C10.0451 3.74292 9.7024 3.39556 9.2792 3.39417Z" fill="black"/>
<path opacity="0.2" d="M8.8606 3.81836H4.18604V14.4249H8.8606C9.28379 14.4235 9.62652 14.0761 9.6279 13.6472V4.59603C9.62652 4.16712 9.28379 3.81976 8.8606 3.81836Z" fill="black"/>
<path opacity="0.2" d="M8.8606 3.81836H4.18604V13.5764H8.8606C9.28379 13.575 9.62652 13.2276 9.6279 12.7987V4.59603C9.62652 4.16712 9.28379 3.81976 8.8606 3.81836Z" fill="black"/>
<path opacity="0.2" d="M8.44199 3.81836H4.18604V13.5764H8.44199C8.86519 13.575 9.20792 13.2276 9.2093 12.7987V4.59603C9.20792 4.16712 8.86519 3.81976 8.44199 3.81836Z" fill="black"/>
<path d="M0.767305 3.81836H8.44201C8.86578 3.81836 9.20931 4.16654 9.20931 4.59603V12.3745C9.20931 12.804 8.86578 13.1521 8.44201 13.1521H0.767305C0.343534 13.1521 0 12.804 0 12.3745V4.59603C0 4.16654 0.343534 3.81836 0.767305 3.81836Z" fill="url(#paint0_linear_199_399)"/>
<path d="M3.1487 9.78271C3.16377 9.90278 3.17382 10.0072 3.17842 10.0967H3.196C3.20269 10.0118 3.21664 9.90957 3.23786 9.78993C3.25907 9.67028 3.27819 9.56917 3.29521 9.48658L4.10228 5.95757H5.14586L5.98307 9.43355C6.03172 9.64968 6.06653 9.86877 6.08731 10.0895H6.10112C6.11673 9.87566 6.14582 9.66309 6.18819 9.45306L6.85587 5.95587H7.80568L6.63275 11.0131H5.52303L4.72768 7.66394C4.70466 7.56764 4.67829 7.44163 4.6494 7.28677C4.62052 7.13192 4.60252 7.01864 4.5954 6.94736H4.58158C4.57238 7.02967 4.55437 7.15186 4.52758 7.31393C4.50079 7.476 4.4793 7.59592 4.46311 7.6737L3.71548 11.0122H2.58692L1.40771 5.95756H2.37469L3.10181 9.49378C3.11814 9.56634 3.13363 9.66307 3.1487 9.78271Z" fill="white"/>
<defs>
<linearGradient id="paint0_linear_199_399" x1="1.59985" y1="3.2107" x2="7.73127" y2="13.6885" gradientUnits="userSpaceOnUse">
<stop stop-color="#2368C4"/>
<stop offset="0.5" stop-color="#1A5DBE"/>
<stop offset="1" stop-color="#1146AC"/>
</linearGradient>
</defs>
</svg>
